<svg height="24" viewBox="0 0 24 24" width="24" xmlns="http://www.w3.org/2000/svg"><path d="m10.3414954 19.7525767-8.00000001-7c-.45532719-.3984113-.45532719-1.1067421 0-1.5051534l8.00000001-6.99999999c.6465829-.56576004 1.6585046-.10658212 1.6585046.75257669v14c0 .8591588-1.0119217 1.3183367-1.6585046.7525767zm10 0-8-7c-.4553272-.3984113-.4553272-1.1067421 0-1.5051534l8-6.99999999c.6465829-.56576004 1.6585046-.10658212 1.6585046.75257669v14c0 .8591588-1.0119217 1.3183367-1.6585046.7525767zm-10.3414954-12.54880847-5.48140774 4.79623177 5.48140774 4.7962318zm10 9.59246357v-9.59246357l-5.4814077 4.79623177z" fill-rule="evenodd"/></svg>